<?xml version="1.0" standalone="no"?>
<!DOCTYPE svg PUBLIC "-//W3C//DTD SVG 1.0//EN" "http://www.w3.org/TR/2001/REC-SVG-20010904/DTD/svg10.dtd">
<svg xmlns="http://www.w3.org/2000/svg" xmlns:xlink="http://www.w3.org/1999/xlink" id="body_1" width="178" height="79">

<defs>
    <radialGradient cx="49.85796%" cy="91.80338%" r="127.08058%" fx="49.85796%" fy="91.80338%" gradientUnits="objectBoundingBox" id="1">
        <stop offset="0%" stop-color="#EDEDEE" stop-opacity="1"/>
        <stop offset="99.95%" stop-color="#8A8C8E" stop-opacity="1"/>
        <stop offset="100%" stop-color="#8A8C8E" stop-opacity="1"/>
    </radialGradient>
<mask id="364">
<path  transform="matrix(1 0 0 1 0.499998 0.500026)"   d="M129.07614 57.843C 129.07614 75.0016 122.25264 91.474976 110.119675 103.60794C 97.98671 115.740906 81.51333 122.56441 64.35473 122.56441C 47.19613 122.56441 30.722748 115.740906 18.589785 103.60794C 6.456822 91.474976 -0.36667633 75.0016 -0.36667633 57.843C -0.36667633 40.6844 6.456822 24.211018 18.589785 12.078054C 30.722748 -0.054908436 47.19613 -6.8784065 64.35473 -6.8784065C 81.51333 -6.8784065 97.98671 -0.054908436 110.119675 12.078054C 122.25264 24.211018 129.07614 40.6844 129.07614 57.843z" fill="white"/>
</mask>
</defs>

<g transform="matrix(0.22646312 0 0 0.22646312 -0 23.534351)">
	<g>
		<g transform="matrix(1 0 0 1 0 0.61)">
            <path d="M399.5 115.6L399.5 0.64L459.78 0.64C 480.91 0.64 496.42 10.68 496.42 33.89C 496.42 48.67 487.11 59.75 472.04 63.29L472.04 63.29L472.78 63.73C 480.61 67.43 486.67 72.75 490.36 82.2C 493.17 89.44 493.17 97.72 494.2 104.07C 494.94 108.51 495.38 111.16 496.12 115.6L496.12 115.6L477.06 115.6C 476.17 110.58 475.73 109.69 475.14 104.07C 474.55 99.79 474.1 91.06 472.77 86.2C 469.37 74.09 460.8 67.14 444.99 67.14L444.99 67.14L417.51 67.14L417.51 115.6L399.5 115.6zM417.52 14.83L417.52 52.95L456.38 52.95C 466.28 52.95 476.92 50.29 476.92 33.89C 476.92 17.49 466.29 14.83 456.38 14.83L456.38 14.83L417.52 14.83z" stroke="none" fill="#000000" fill-rule="nonzero" />
            <path d="M527.48 97.57C 532.06 102.29 536.94 103.33 543.44 103.33L543.44 103.33L571.66 103.33L571.66 115.6L543.59 115.6C 514.92 115.6 504.58 97.13 504.58 75.41C 504.58 53.4 518.47 35.22 543.59 35.22L543.59 35.22L571.66 35.22L571.66 47.48L543.44 47.48C 536.79 47.48 532.21 49.99 529.1 52.51C 524.96 56.05 521.86 61.08 521.86 66.54L521.86 66.54L521.86 68.47L571.51 68.47L571.51 80.73L521.86 80.73L521.86 82.8C 521.87 88.85 523.35 93.14 527.48 97.57" stroke="none" fill="#000000" fill-rule="nonzero" />
            <path d="M583.03 35.22L659.72 35.22C 670.06 35.22 678.04 35.22 685.28 42.61C 691.49 48.81 692.97 55.32 692.97 64.18L692.97 64.18L692.97 115.6L677.9 115.6L677.9 66.24C 677.9 60.48 677.45 56.34 673.61 52.21C 669.33 47.63 664.3 47.48 657.95 47.48L657.95 47.48L644.65 47.48L644.65 115.6L629.43 115.6L629.43 47.48L598.25 47.48L598.25 115.6L583.03 115.6L583.03 35.22" stroke="none" fill="#000000" fill-rule="nonzero" />
            <path d="M704.48 4.19L719.7 4.19L719.7 20.44L704.48 20.44L704.48 4.19zM704.48 35.22L719.7 35.22L719.7 115.6L704.48 115.6L704.48 35.22z" stroke="none" fill="#000000" fill-rule="nonzero" />
            <path d="M729.91 35.22L745.72 35.22L745.72 4.19L760.94 4.19L760.94 35.22L785.02 35.22L785.02 47.48L760.94 47.48L760.94 95.5C 760.94 97.71 761.53 99.34 763.01 100.96C 764.49 102.59 766.26 103.33 768.78 103.33L768.78 103.33L785.03 103.33L785.03 115.6L761.09 115.6C 756.95 115.6 753.55 113.97 751.04 111.46C 748.68 109.25 745.72 104.82 745.72 99.79L745.72 99.79L745.72 47.48L729.91 47.48L729.91 35.22" stroke="none" fill="#000000" fill-rule="nonzero" />
            <path d="M173.07 115.6C 135.54 115.6 126.23 81.32 126.23 58.12C 126.23 34.93 135.54 0.65 173.07 0.65L173.07 0.65L217.99 0.65L217.99 14.83L180.46 14.83C 153.56 14.83 145.88 33.44 145.88 58.12C 145.88 82.8 153.56 101.42 180.31 101.42L180.31 101.42L217.99 101.42L217.99 115.6L173.07 115.6" stroke="none" fill="#ED1C24" fill-rule="nonzero" />
            <path d="M229.51 4.18L244.73 4.18L244.73 20.43L229.51 20.43L229.51 4.18zM229.51 35.21L244.73 35.21L244.73 115.6L229.51 115.6L229.51 35.21z" stroke="none" fill="#ED1C24" fill-rule="nonzero" />
            <path d="M251.99 35.21L267.8 35.21L267.8 4.18L283.02 4.18L283.02 35.21L307.11 35.21L307.11 47.48L283.02 47.48L283.02 95.5C 283.02 97.72 283.61 99.34 285.09 100.97C 286.57 102.6 288.34 103.33 290.85 103.33L290.85 103.33L307.1 103.33L307.1 115.6L283.16 115.6C 279.02 115.6 275.62 113.98 273.11 111.47C 270.75 109.25 267.79 104.82 267.79 99.8L267.79 99.8L267.79 47.48L251.99 47.48L251.99 35.21" stroke="none" fill="#ED1C24" fill-rule="nonzero" />
			<g>
                <path d="M331.63 99.05C 335.32 102.15 337.98 103.33 342.27 103.33L342.27 103.33L367.98 103.33L367.98 35.21L383.2 35.21L383.2 118.41C 383.2 124.17 382.32 128.17 378.77 132.59C 374.34 138.21 368.43 140.28 361.92 140.28L361.92 140.28L312.71 140.28L312.71 127.87L356.16 127.87C 360 127.87 363.1 127.73 365.62 124.92C 367.54 122.55 367.98 120.34 367.98 117.23L367.98 117.23L367.98 115.6L339.61 115.6C 331.33 115.6 326.46 114.42 321.14 110.14C 314.64 104.82 312.72 98.47 312.72 90.34L312.72 90.34L312.72 35.21L327.94 35.21L327.94 89C 327.94 93.14 328.68 96.39 331.63 99.05" stroke="none" fill="#ED1C24" fill-rule="nonzero" />
                <path d="M1.4210855E-14 115.68L74.72 115.68C 79.12 81.2 100.02 33.19 128.71 2.2737368E-13C 89.49 9.05 10.72 82.83 1.4210855E-14 115.68" stroke="none" mask="url(#364)" fill="url(#1)"  />
			</g>
            <path d="M37.52 51.33C 21.07 35.74 10.22 18.12 1.3 0C 35.52 0 69.74 0 103.97 0C 84.23 10.62 63.77 27.3 50.2 39.46C 46.45 42.82 42.12 46.85 37.52 51.33" stroke="none" fill="#D2232A" fill-rule="nonzero" />
		</g>
	</g>
</g>
</svg>