<svg width="40" height="40" viewBox="0 0 40 40" fill="none" xmlns="http://www.w3.org/2000/svg">
    <defs>
        <linearGradient id="paint0_linear_1458_11125" x1="10.42" y1="15.5755" x2="28.4971" y2="15.5755" gradientUnits="userSpaceOnUse">
            <stop stop-color="#ED1556"/>
            <stop offset="0.0894" stop-color="#E4205F"/>
            <stop offset="0.2708" stop-color="#D13175"/>
            <stop offset="0.5" stop-color="#B24198"/>
            <stop offset="1" stop-color="#2EB1E6"/>
        </linearGradient>
        <linearGradient id="paint1_linear_1458_11125" x1="10.6195" y1="28.529" x2="28.2873" y2="28.529" gradientUnits="userSpaceOnUse">
            <stop stop-color="#ED1556"/>
            <stop offset="0.0894" stop-color="#E4205F"/>
            <stop offset="0.2708" stop-color="#D13175"/>
            <stop offset="0.5" stop-color="#B24198"/>
            <stop offset="1" stop-color="#2EB1E6"/>
        </linearGradient>
        <linearGradient id="paint2_linear_1458_11125" x1="10.6195" y1="31.7145" x2="28.2873" y2="31.7145" gradientUnits="userSpaceOnUse">
            <stop stop-color="#ED1556"/>
            <stop offset="0.0894" stop-color="#E4205F"/>
            <stop offset="0.2708" stop-color="#D13175"/>
            <stop offset="0.5" stop-color="#B24198"/>
            <stop offset="1" stop-color="#2EB1E6"/>
        </linearGradient>
        <linearGradient id="paint3_linear_1458_11125" x1="14.0098" y1="15.6042" x2="24.9176" y2="15.6042" gradientUnits="userSpaceOnUse">
            <stop stop-color="#ED1556"/>
            <stop offset="0.0894" stop-color="#E4205F"/>
            <stop offset="0.2708" stop-color="#D13175"/>
            <stop offset="0.5" stop-color="#B24198"/>
            <stop offset="1" stop-color="#2EB1E6"/>
        </linearGradient>
        <linearGradient id="paint4_linear_1458_11125" x1="7.00004" y1="20.001" x2="31.9282" y2="20.001" gradientUnits="userSpaceOnUse">
            <stop stop-color="#ED1556"/>
            <stop offset="0.0894" stop-color="#E4205F"/>
            <stop offset="0.2708" stop-color="#D13175"/>
            <stop offset="0.5" stop-color="#B24198"/>
            <stop offset="1" stop-color="#2EB1E6"/>
        </linearGradient>
    </defs>

    <path d="M19.5029 6.54199C14.4729 6.54199 10.42 10.5505 10.42 15.5472C10.42 20.5662 14.4396 24.608 19.4585 24.608C24.4553 24.608 28.486 20.5773 28.4971 15.6027C28.4971 10.5949 24.4775 6.5531 19.5029 6.54199ZM19.4363 23.2089C15.2724 23.1978 11.8302 19.7556 11.8302 15.5916C11.8302 11.4055 15.2946 7.95218 19.4696 7.96329C23.6336 7.97439 27.0647 11.4166 27.0758 15.5805C27.0869 19.7556 23.6114 23.22 19.4363 23.2089Z" fill="url(#paint0_linear_1458_11125)"/>
    <path d="M27.5976 27.8172H27.3645C22.0901 27.8172 16.8269 27.8172 11.5526 27.8172C11.4415 27.8172 11.3305 27.8061 11.2195 27.8283C10.853 27.895 10.6309 28.1281 10.6198 28.5057C10.6087 28.9054 10.8308 29.1497 11.2195 29.2274C11.3527 29.2496 11.497 29.2385 11.6414 29.2385C14.2286 29.2385 16.8158 29.2385 19.403 29.2385C21.7903 29.2385 24.1665 29.2385 26.5539 29.2385C26.8981 29.2385 27.2423 29.2496 27.5865 29.2385C27.9863 29.2163 28.275 28.9276 28.2861 28.5612C28.3083 28.1503 28.0196 27.8505 27.5976 27.8172Z" fill="url(#paint1_linear_1458_11125)"/>
    <path d="M27.5976 31.0028H27.3645C22.0901 31.0028 16.8269 31.0028 11.5526 31.0028C11.4415 31.0028 11.3305 30.9917 11.2195 31.0139C10.853 31.0805 10.6309 31.3137 10.6198 31.6912C10.6087 32.091 10.8308 32.3352 11.2195 32.413C11.3527 32.4352 11.497 32.4241 11.6414 32.4241C14.2286 32.4241 16.8158 32.4241 19.403 32.4241C21.7903 32.4241 24.1665 32.4241 26.5539 32.4241C26.8981 32.4241 27.2423 32.4352 27.5865 32.4241C27.9863 32.4019 28.275 32.1132 28.2861 31.7467C28.3083 31.3359 28.0196 31.0361 27.5976 31.0028Z" fill="url(#paint2_linear_1458_11125)"/>
    <path d="M23.145 11.2279C22.3677 11.0725 21.7348 11.3501 21.1907 11.8942C20.1469 12.9268 19.1143 13.9817 18.0039 15.0921C17.8485 14.9033 17.7485 14.759 17.6264 14.6479C16.7825 13.8484 15.4722 13.8484 14.6616 14.6368C13.8289 15.4474 13.7844 16.7243 14.5839 17.6015C15.128 18.19 15.6943 18.7563 16.2828 19.3004C17.2822 20.2221 18.7479 20.2887 19.7361 19.3448C21.3129 17.8458 22.8674 16.3135 24.3553 14.7256C25.499 13.482 24.7995 11.5499 23.145 11.2279ZM23.2671 13.7818C23.034 14.0483 22.7675 14.2926 22.5121 14.548C21.3351 15.725 20.1692 16.902 18.981 18.0568C18.7368 18.29 18.4036 18.4343 18.0705 18.6342C17.7374 18.4565 17.4265 18.3677 17.2044 18.1789C16.6825 17.7126 16.194 17.2018 15.7054 16.691C15.3723 16.3468 15.3612 15.936 15.6499 15.6473C15.9275 15.3808 16.3272 15.3919 16.6603 15.6917C16.8602 15.8693 17.0379 16.0692 17.2266 16.258C17.7596 16.7799 18.2926 16.7799 18.8256 16.2469C19.8916 15.192 20.9575 14.126 22.0124 13.0601C22.1123 12.9601 22.2012 12.8491 22.3233 12.7714C22.6453 12.5715 22.9784 12.5271 23.256 12.8269C23.5447 13.1378 23.5225 13.482 23.2671 13.7818Z" fill="url(#paint3_linear_1458_11125)"/>
    <path d="M31.9282 6.06466C31.9282 4.4435 31.0287 3.32201 29.5408 3.06662C29.3187 3.02221 29.0967 3 28.8524 3C22.5898 3 16.3161 3 10.0425 3C9.80927 3 9.5872 3.02221 9.37622 3.05552C8.01045 3.2998 7.12214 4.28805 7 5.76486V15.1587V33.9464C7 35.5676 7.89941 36.6891 9.39843 36.9445C9.60941 36.9778 9.83148 37 10.0647 37C13.1959 37 16.3383 37 19.4696 37C22.6009 37 25.7433 37 28.8746 37C29.1078 37 29.3298 36.9778 29.5297 36.9445C30.8955 36.7002 31.7838 35.712 31.9059 34.2351C31.9282 24.8413 31.9282 15.4585 31.9282 6.06466ZM29.2965 35.5232C29.1633 35.5454 29.03 35.5565 28.8857 35.5565C22.612 35.5565 16.3383 35.5565 10.0647 35.5565C9.90921 35.5565 9.77596 35.5454 9.64272 35.5232C8.84324 35.3899 8.4435 34.857 8.4435 33.9464V5.83148C8.51012 5.06532 8.90986 4.61006 9.63161 4.48792C9.75376 4.4546 9.89811 4.4435 10.0425 4.4435C13.1848 4.4435 16.3161 4.4435 19.4474 4.4435C22.5787 4.4435 25.7211 4.4435 28.8524 4.4435C29.0078 4.4435 29.1411 4.4546 29.2743 4.47681C30.0738 4.61006 30.4735 5.14304 30.4735 6.05356C30.4735 15.4474 30.4735 24.8413 30.4735 34.1685C30.418 34.9458 30.0183 35.401 29.2965 35.5232Z" fill="url(#paint4_linear_1458_11125)"/>

</svg>
