<svg width="40" height="40" viewBox="0 0 40 40" fill="none" xmlns="http://www.w3.org/2000/svg">
    <defs>
        <linearGradient id="paint0_linear_1443_222" x1="2.0012" y1="19.922" x2="38.7823" y2="19.922" gradientUnits="userSpaceOnUse">
            <stop stop-color="#ED1556"/>
            <stop offset="0.0894" stop-color="#E4205F"/>
            <stop offset="0.2708" stop-color="#D13175"/>
            <stop offset="0.5" stop-color="#B24198"/>
            <stop offset="1" stop-color="#2EB1E6"/>
        </linearGradient>
        <linearGradient id="paint1_linear_1443_222" x1="10.042" y1="20.2574" x2="30.69" y2="20.2574" gradientUnits="userSpaceOnUse">
            <stop stop-color="#ED1556"/>
            <stop offset="0.0894" stop-color="#E4205F"/>
            <stop offset="0.2708" stop-color="#D13175"/>
            <stop offset="0.5" stop-color="#B24198"/>
            <stop offset="1" stop-color="#2EB1E6"/>
        </linearGradient>
        <linearGradient id="paint2_linear_1443_222" x1="19.3324" y1="19.2519" x2="21.4023" y2="19.2519" gradientUnits="userSpaceOnUse">
            <stop stop-color="#ED1556"/>
            <stop offset="0.0894" stop-color="#E4205F"/>
            <stop offset="0.2708" stop-color="#D13175"/>
            <stop offset="0.5" stop-color="#B24198"/>
            <stop offset="1" stop-color="#2EB1E6"/>
        </linearGradient>
        <linearGradient id="paint3_linear_1443_222" x1="15.9722" y1="19.2515" x2="18.0425" y2="19.2515" gradientUnits="userSpaceOnUse">
            <stop stop-color="#ED1556"/>
            <stop offset="0.0894" stop-color="#E4205F"/>
            <stop offset="0.2708" stop-color="#D13175"/>
            <stop offset="0.5" stop-color="#B24198"/>
            <stop offset="1" stop-color="#2EB1E6"/>
        </linearGradient>
        <linearGradient id="paint4_linear_1443_222" x1="22.6923" y1="19.2515" x2="24.7623" y2="19.2515" gradientUnits="userSpaceOnUse">
            <stop stop-color="#ED1556"/>
            <stop offset="0.0894" stop-color="#E4205F"/>
            <stop offset="0.2708" stop-color="#D13175"/>
            <stop offset="0.5" stop-color="#B24198"/>
            <stop offset="1" stop-color="#2EB1E6"/>
        </linearGradient>
    </defs>
    <path d="M38.7012 18.5601C38.3312 16.2301 37.0712 14.5801 34.9012 13.6501C34.6312 13.5401 34.4812 13.3901 34.3712 13.1401C31.6612 6.99008 25.1612 3.24008 18.5412 4.13008C12.8312 4.89008 8.7612 7.96008 6.3212 13.1901C6.2212 13.4101 6.1012 13.5401 5.8712 13.6301C3.4712 14.5801 1.9512 16.8701 2.0012 19.4501C2.0412 22.0101 3.6812 24.2601 6.1012 25.1201C6.3912 25.2201 6.6412 25.2101 6.8712 25.0201C7.1812 24.7501 7.1412 24.4201 7.0212 24.0601C6.2312 21.8301 6.0212 19.5401 6.3612 17.2001C7.5112 9.34008 15.0412 3.95008 22.8712 5.38008C32.9012 7.20008 37.8112 18.7401 32.1312 27.1901C29.8612 30.5701 26.6812 32.5801 22.6812 33.3001C22.4712 33.3401 22.2512 33.4501 22.1012 33.1001C21.7412 32.2501 20.8912 31.8301 20.0112 31.9901C19.1612 32.1401 18.5112 32.8801 18.4512 33.7601C18.3812 34.6101 18.9212 35.3901 19.7812 35.7001C19.8612 35.7301 19.9912 35.7001 19.9912 35.8501C20.2212 35.8501 20.4412 35.8501 20.6612 35.8501C20.6712 35.7301 20.7812 35.7401 20.8612 35.7201C21.4012 35.5701 21.8112 35.2401 22.0612 34.7401C22.1512 34.5701 22.2612 34.5201 22.4312 34.5001C28.0312 33.5901 32.0212 30.5701 34.4112 25.4301C34.4912 25.2501 34.5812 25.1301 34.7712 25.0501C36.9312 24.1701 38.2312 22.5901 38.6612 20.3001C38.6812 20.1901 38.6312 20.0401 38.7812 19.9801C38.7812 19.5801 38.7812 19.1801 38.7812 18.7901C38.6712 18.7401 38.7112 18.6301 38.7012 18.5601Z" fill="url(#paint0_linear_1443_222)"/>
    <path d="M21.4512 29.6001C23.7912 29.3501 25.8312 28.4301 27.5112 26.7901C29.7812 24.5701 30.8412 21.8601 30.6712 18.6701C30.5912 17.2701 30.2712 15.9401 29.6112 14.7101C27.6512 11.0201 24.5412 9.13009 20.3812 8.97009C19.9112 9.01009 19.4512 9.00009 18.9912 9.07009C16.8512 9.37009 14.9612 10.2301 13.3912 11.7101C11.0112 13.9501 9.87116 16.7201 10.0612 20.0101C10.1612 21.6601 10.5812 23.2201 11.5012 24.5701C12.0812 25.4301 12.0712 26.1401 11.7112 27.0401C11.2012 28.3201 10.8212 29.6401 10.3712 30.9501C10.2812 31.2001 10.3412 31.4001 10.5812 31.5101C10.7912 31.6001 10.9712 31.4601 11.1412 31.3701C12.5612 30.5901 13.9912 29.8101 15.4112 29.0101C15.8012 28.7901 16.1512 28.7601 16.5712 28.9301C18.1312 29.5601 19.7612 29.7801 21.4512 29.6001ZM11.4812 19.2301C11.4112 14.4901 15.4212 10.4701 20.2412 10.4801C25.0112 10.4901 29.0112 14.3701 29.0112 19.2701C29.0112 24.1101 25.0612 28.0301 20.2012 28.0201C15.3312 28.0101 11.4112 24.0001 11.4812 19.2301Z" fill="url(#paint1_linear_1443_222)"/>
    <path d="M21.4012 19.2501C21.4012 18.6801 20.9212 18.2201 20.3512 18.2201C19.7912 18.2301 19.3312 18.6901 19.3312 19.2401C19.3312 19.8101 19.8012 20.2701 20.3812 20.2701C20.9412 20.2701 21.4012 19.8101 21.4012 19.2501Z" fill="url(#paint2_linear_1443_222)"/>
    <path d="M17.0012 18.2301C16.4412 18.2301 15.9812 18.6801 15.9712 19.2401C15.9612 19.8101 16.4312 20.2801 17.0112 20.2801C17.5712 20.2801 18.0312 19.8301 18.0412 19.2701C18.0512 18.6901 17.5812 18.2201 17.0012 18.2301Z" fill="url(#paint3_linear_1443_222)"/>
    <path d="M23.7412 20.2801C24.3012 20.2701 24.7612 19.8201 24.7612 19.2601C24.7612 18.6901 24.2912 18.2201 23.7112 18.2301C23.1512 18.2401 22.7012 18.6901 22.6912 19.2501C22.6912 19.8201 23.1612 20.2801 23.7412 20.2801Z" fill="url(#paint4_linear_1443_222)"/>
</svg>
