<?xml version="1.0" encoding="UTF-8"?>
<svg xmlns="http://www.w3.org/2000/svg" xmlns:xlink="http://www.w3.org/1999/xlink" width="40px" height="40px" viewBox="0 0 10 10" version="1.1">
<defs>
<linearGradient id="linear0" gradientUnits="userSpaceOnUse" x1="19.5998" y1="26.8421" x2="37.673" y2="26.8421" gradientTransform="matrix(0.25,0,0,0.25,0,0)">
<stop offset="0" style="stop-color:rgb(92.941176%,8.235294%,33.72549%);stop-opacity:1;"/>
<stop offset="0.0894" style="stop-color:rgb(89.411765%,12.54902%,37.254902%);stop-opacity:1;"/>
<stop offset="0.2708" style="stop-color:rgb(81.960784%,19.215686%,45.882353%);stop-opacity:1;"/>
<stop offset="0.5" style="stop-color:rgb(69.803922%,25.490196%,59.607843%);stop-opacity:1;"/>
<stop offset="1" style="stop-color:rgb(18.039216%,69.411765%,90.196078%);stop-opacity:1;"/>
</linearGradient>
<linearGradient id="linear1" gradientUnits="userSpaceOnUse" x1="2.99985" y1="13.0346" x2="21.0797" y2="13.0346" gradientTransform="matrix(0.25,0,0,0.25,0,0)">
<stop offset="0" style="stop-color:rgb(92.941176%,8.235294%,33.72549%);stop-opacity:1;"/>
<stop offset="0.0894" style="stop-color:rgb(89.411765%,12.54902%,37.254902%);stop-opacity:1;"/>
<stop offset="0.2708" style="stop-color:rgb(81.960784%,19.215686%,45.882353%);stop-opacity:1;"/>
<stop offset="0.5" style="stop-color:rgb(69.803922%,25.490196%,59.607843%);stop-opacity:1;"/>
<stop offset="1" style="stop-color:rgb(18.039216%,69.411765%,90.196078%);stop-opacity:1;"/>
</linearGradient>
<linearGradient id="linear2" gradientUnits="userSpaceOnUse" x1="4.8996" y1="13.028" x2="19.1497" y2="13.028" gradientTransform="matrix(0.25,0,0,0.25,0,0)">
<stop offset="0" style="stop-color:rgb(92.941176%,8.235294%,33.72549%);stop-opacity:1;"/>
<stop offset="0.0894" style="stop-color:rgb(89.411765%,12.54902%,37.254902%);stop-opacity:1;"/>
<stop offset="0.2708" style="stop-color:rgb(81.960784%,19.215686%,45.882353%);stop-opacity:1;"/>
<stop offset="0.5" style="stop-color:rgb(69.803922%,25.490196%,59.607843%);stop-opacity:1;"/>
<stop offset="1" style="stop-color:rgb(18.039216%,69.411765%,90.196078%);stop-opacity:1;"/>
</linearGradient>
<linearGradient id="linear3" gradientUnits="userSpaceOnUse" x1="21.5296" y1="26.8385" x2="35.7697" y2="26.8385" gradientTransform="matrix(0.25,0,0,0.25,0,0)">
<stop offset="0" style="stop-color:rgb(92.941176%,8.235294%,33.72549%);stop-opacity:1;"/>
<stop offset="0.0894" style="stop-color:rgb(89.411765%,12.54902%,37.254902%);stop-opacity:1;"/>
<stop offset="0.2708" style="stop-color:rgb(81.960784%,19.215686%,45.882353%);stop-opacity:1;"/>
<stop offset="0.5" style="stop-color:rgb(69.803922%,25.490196%,59.607843%);stop-opacity:1;"/>
<stop offset="1" style="stop-color:rgb(18.039216%,69.411765%,90.196078%);stop-opacity:1;"/>
</linearGradient>
<linearGradient id="linear4" gradientUnits="userSpaceOnUse" x1="22.4092" y1="11.4286" x2="32.8096" y2="11.4286" gradientTransform="matrix(0.25,0,0,0.25,0,0)">
<stop offset="0" style="stop-color:rgb(92.941176%,8.235294%,33.72549%);stop-opacity:1;"/>
<stop offset="0.0894" style="stop-color:rgb(89.411765%,12.54902%,37.254902%);stop-opacity:1;"/>
<stop offset="0.2708" style="stop-color:rgb(81.960784%,19.215686%,45.882353%);stop-opacity:1;"/>
<stop offset="0.5" style="stop-color:rgb(69.803922%,25.490196%,59.607843%);stop-opacity:1;"/>
<stop offset="1" style="stop-color:rgb(18.039216%,69.411765%,90.196078%);stop-opacity:1;"/>
</linearGradient>
<linearGradient id="linear5" gradientUnits="userSpaceOnUse" x1="7.82821" y1="28.4755" x2="18.2796" y2="28.4755" gradientTransform="matrix(0.25,0,0,0.25,0,0)">
<stop offset="0" style="stop-color:rgb(92.941176%,8.235294%,33.72549%);stop-opacity:1;"/>
<stop offset="0.0894" style="stop-color:rgb(89.411765%,12.54902%,37.254902%);stop-opacity:1;"/>
<stop offset="0.2708" style="stop-color:rgb(81.960784%,19.215686%,45.882353%);stop-opacity:1;"/>
<stop offset="0.5" style="stop-color:rgb(69.803922%,25.490196%,59.607843%);stop-opacity:1;"/>
<stop offset="1" style="stop-color:rgb(18.039216%,69.411765%,90.196078%);stop-opacity:1;"/>
</linearGradient>
<linearGradient id="linear6" gradientUnits="userSpaceOnUse" x1="34.3516" y1="20.7282" x2="35.3297" y2="20.7282" gradientTransform="matrix(0.25,0,0,0.25,0,0)">
<stop offset="0" style="stop-color:rgb(92.941176%,8.235294%,33.72549%);stop-opacity:1;"/>
<stop offset="0.0894" style="stop-color:rgb(89.411765%,12.54902%,37.254902%);stop-opacity:1;"/>
<stop offset="0.2708" style="stop-color:rgb(81.960784%,19.215686%,45.882353%);stop-opacity:1;"/>
<stop offset="0.5" style="stop-color:rgb(69.803922%,25.490196%,59.607843%);stop-opacity:1;"/>
<stop offset="1" style="stop-color:rgb(18.039216%,69.411765%,90.196078%);stop-opacity:1;"/>
</linearGradient>
<linearGradient id="linear7" gradientUnits="userSpaceOnUse" x1="17.7593" y1="6.88356" x2="18.5248" y2="6.88356" gradientTransform="matrix(0.25,0,0,0.25,0,0)">
<stop offset="0" style="stop-color:rgb(92.941176%,8.235294%,33.72549%);stop-opacity:1;"/>
<stop offset="0.0894" style="stop-color:rgb(89.411765%,12.54902%,37.254902%);stop-opacity:1;"/>
<stop offset="0.2708" style="stop-color:rgb(81.960784%,19.215686%,45.882353%);stop-opacity:1;"/>
<stop offset="0.5" style="stop-color:rgb(69.803922%,25.490196%,59.607843%);stop-opacity:1;"/>
<stop offset="1" style="stop-color:rgb(18.039216%,69.411765%,90.196078%);stop-opacity:1;"/>
</linearGradient>
<linearGradient id="linear8" gradientUnits="userSpaceOnUse" x1="8.3997" y1="13.0338" x2="11.3498" y2="13.0338" gradientTransform="matrix(0.25,0,0,0.25,0,0)">
<stop offset="0" style="stop-color:rgb(92.941176%,8.235294%,33.72549%);stop-opacity:1;"/>
<stop offset="0.0894" style="stop-color:rgb(89.411765%,12.54902%,37.254902%);stop-opacity:1;"/>
<stop offset="0.2708" style="stop-color:rgb(81.960784%,19.215686%,45.882353%);stop-opacity:1;"/>
<stop offset="0.5" style="stop-color:rgb(69.803922%,25.490196%,59.607843%);stop-opacity:1;"/>
<stop offset="1" style="stop-color:rgb(18.039216%,69.411765%,90.196078%);stop-opacity:1;"/>
</linearGradient>
<linearGradient id="linear9" gradientUnits="userSpaceOnUse" x1="12.0596" y1="13.0446" x2="16.1197" y2="13.0446" gradientTransform="matrix(0.25,0,0,0.25,0,0)">
<stop offset="0" style="stop-color:rgb(92.941176%,8.235294%,33.72549%);stop-opacity:1;"/>
<stop offset="0.0894" style="stop-color:rgb(89.411765%,12.54902%,37.254902%);stop-opacity:1;"/>
<stop offset="0.2708" style="stop-color:rgb(81.960784%,19.215686%,45.882353%);stop-opacity:1;"/>
<stop offset="0.5" style="stop-color:rgb(69.803922%,25.490196%,59.607843%);stop-opacity:1;"/>
<stop offset="1" style="stop-color:rgb(18.039216%,69.411765%,90.196078%);stop-opacity:1;"/>
</linearGradient>
<linearGradient id="linear10" gradientUnits="userSpaceOnUse" x1="25.7996" y1="26.8788" x2="31.2173" y2="26.8788" gradientTransform="matrix(0.25,0,0,0.25,0,0)">
<stop offset="0" style="stop-color:rgb(92.941176%,8.235294%,33.72549%);stop-opacity:1;"/>
<stop offset="0.0894" style="stop-color:rgb(89.411765%,12.54902%,37.254902%);stop-opacity:1;"/>
<stop offset="0.2708" style="stop-color:rgb(81.960784%,19.215686%,45.882353%);stop-opacity:1;"/>
<stop offset="0.5" style="stop-color:rgb(69.803922%,25.490196%,59.607843%);stop-opacity:1;"/>
<stop offset="1" style="stop-color:rgb(18.039216%,69.411765%,90.196078%);stop-opacity:1;"/>
</linearGradient>
</defs>
<g id="surface1">
<path style=" stroke:none;fill-rule:nonzero;fill:url(#linear0);" d="M 9.015625 5.429688 C 8.976562 5.367188 8.925781 5.324219 8.859375 5.371094 C 8.789062 5.414062 8.800781 5.480469 8.847656 5.539062 L 8.875 5.582031 C 9.140625 5.988281 9.253906 6.441406 9.203125 6.921875 C 9.089844 8.082031 8.042969 8.902344 6.878906 8.753906 C 5.542969 8.585938 4.726562 7.164062 5.25 5.921875 C 5.757812 4.714844 7.207031 4.28125 8.308594 5.007812 C 8.375 5.050781 8.441406 5.085938 8.496094 5.003906 C 8.546875 4.921875 8.484375 4.878906 8.425781 4.835938 C 7.953125 4.523438 7.441406 4.402344 6.878906 4.46875 C 5.753906 4.605469 4.898438 5.574219 4.898438 6.707031 C 4.910156 6.832031 4.914062 6.957031 4.933594 7.078125 C 5.140625 8.332031 6.359375 9.171875 7.609375 8.921875 C 9.191406 8.601562 9.9375 6.753906 9.015625 5.429688 Z M 9.015625 5.429688 "/>
<path style=" stroke:none;fill-rule:nonzero;fill:url(#linear1);" d="M 5.238281 2.921875 C 5.191406 2.574219 5.058594 2.253906 4.859375 1.964844 C 4.816406 1.902344 4.761719 1.875 4.695312 1.929688 C 4.628906 1.980469 4.660156 2.035156 4.699219 2.09375 C 5.007812 2.554688 5.121094 3.058594 5.03125 3.613281 C 4.851562 4.71875 3.753906 5.496094 2.644531 5.296875 C 1.539062 5.09375 0.808594 4.085938 0.960938 2.972656 C 1.125 1.753906 2.335938 0.953125 3.523438 1.269531 C 3.757812 1.332031 3.976562 1.429688 4.175781 1.566406 C 4.261719 1.625 4.359375 1.59375 4.351562 1.511719 C 4.351562 1.46875 4.3125 1.417969 4.273438 1.394531 C 3.769531 1.054688 3.21875 0.929688 2.613281 1.039062 C 1.414062 1.25 0.601562 2.371094 0.773438 3.574219 C 0.949219 4.816406 2.121094 5.683594 3.355469 5.488281 C 4.453125 5.316406 5.257812 4.378906 5.269531 3.261719 C 5.261719 3.148438 5.257812 3.03125 5.238281 2.921875 Z M 5.238281 2.921875 "/>
<path style=" stroke:none;fill-rule:nonzero;fill:url(#linear2);" d="M 3 1.476562 C 2.015625 1.480469 1.222656 2.28125 1.226562 3.269531 C 1.226562 4.242188 2.039062 5.046875 3.019531 5.039062 C 3.988281 5.035156 4.792969 4.222656 4.789062 3.257812 C 4.78125 2.269531 3.976562 1.46875 3 1.476562 Z M 2.996094 4.832031 C 2.113281 4.824219 1.425781 4.117188 1.433594 3.226562 C 1.441406 2.367188 2.152344 1.679688 3.03125 1.683594 C 3.886719 1.6875 4.585938 2.398438 4.578125 3.261719 C 4.574219 4.140625 3.871094 4.835938 2.996094 4.832031 Z M 2.996094 4.832031 "/>
<path style=" stroke:none;fill-rule:nonzero;fill:url(#linear3);" d="M 7.175781 4.929688 C 6.191406 4.925781 5.386719 5.71875 5.382812 6.699219 C 5.378906 7.6875 6.179688 8.492188 7.167969 8.492188 C 8.136719 8.492188 8.941406 7.683594 8.941406 6.714844 C 8.945312 5.738281 8.148438 4.929688 7.175781 4.929688 Z M 7.183594 8.28125 C 6.289062 8.285156 5.59375 7.59375 5.585938 6.707031 C 5.585938 5.835938 6.289062 5.136719 7.167969 5.136719 C 8.023438 5.136719 8.734375 5.835938 8.738281 6.6875 C 8.738281 7.566406 8.046875 8.28125 7.183594 8.28125 Z M 7.183594 8.28125 "/>
<path style=" stroke:none;fill-rule:nonzero;fill:url(#linear4);" d="M 5.679688 1.886719 C 5.703125 1.902344 5.742188 1.894531 5.773438 1.894531 C 5.996094 1.894531 6.21875 1.886719 6.441406 1.898438 C 6.882812 1.917969 7.199219 2.136719 7.402344 2.519531 C 7.566406 2.835938 7.511719 3.171875 7.511719 3.507812 C 7.488281 3.484375 7.46875 3.457031 7.453125 3.433594 C 7.375 3.296875 7.296875 3.160156 7.21875 3.023438 C 7.1875 2.972656 7.140625 2.941406 7.078125 2.976562 C 7.015625 3.011719 7.011719 3.066406 7.042969 3.125 L 7.0625 3.160156 C 7.210938 3.417969 7.359375 3.675781 7.507812 3.933594 C 7.578125 4.058594 7.660156 4.058594 7.734375 3.929688 C 7.875 3.6875 8.015625 3.441406 8.15625 3.199219 C 8.171875 3.171875 8.203125 3.136719 8.203125 3.105469 C 8.203125 3.0625 8.1875 3 8.160156 2.984375 C 8.128906 2.96875 8.074219 2.992188 8.03125 3.011719 C 8.011719 3.019531 8.003906 3.058594 7.988281 3.082031 C 7.910156 3.21875 7.828125 3.359375 7.753906 3.496094 L 7.730469 3.492188 C 7.730469 3.332031 7.734375 3.171875 7.730469 3.015625 C 7.722656 2.402344 7.324219 1.878906 6.742188 1.730469 C 6.394531 1.640625 6.039062 1.695312 5.6875 1.6875 C 5.65625 1.6875 5.605469 1.746094 5.601562 1.78125 C 5.601562 1.820312 5.644531 1.863281 5.679688 1.886719 Z M 5.679688 1.886719 "/>
<path style=" stroke:none;fill-rule:nonzero;fill:url(#linear5);" d="M 4.492188 8.082031 C 4.46875 8.066406 4.429688 8.074219 4.398438 8.074219 C 4.167969 8.070312 3.941406 8.074219 3.710938 8.066406 C 3.234375 8.050781 2.796875 7.707031 2.699219 7.242188 C 2.648438 7.015625 2.664062 6.773438 2.652344 6.542969 C 2.648438 6.519531 2.65625 6.496094 2.664062 6.453125 C 2.761719 6.621094 2.847656 6.769531 2.933594 6.921875 C 2.96875 6.988281 3.015625 7.042969 3.09375 6.996094 C 3.171875 6.953125 3.148438 6.886719 3.109375 6.820312 C 2.960938 6.5625 2.8125 6.304688 2.664062 6.046875 C 2.59375 5.921875 2.511719 5.921875 2.441406 6.042969 C 2.289062 6.304688 2.140625 6.5625 1.988281 6.824219 C 1.953125 6.886719 1.933594 6.949219 2.003906 6.996094 C 2.082031 7.042969 2.128906 6.992188 2.171875 6.925781 C 2.253906 6.773438 2.339844 6.625 2.425781 6.476562 L 2.453125 6.480469 C 2.453125 6.65625 2.449219 6.835938 2.453125 7.015625 C 2.476562 7.585938 2.859375 8.066406 3.40625 8.222656 C 3.765625 8.324219 4.128906 8.265625 4.492188 8.273438 C 4.515625 8.273438 4.570312 8.210938 4.570312 8.183594 C 4.566406 8.148438 4.527344 8.105469 4.492188 8.082031 Z M 4.492188 8.082031 "/>
<path style=" stroke:none;fill-rule:nonzero;fill:url(#linear6);" d="M 8.691406 5.277344 C 8.726562 5.28125 8.765625 5.230469 8.832031 5.183594 C 8.765625 5.136719 8.730469 5.09375 8.6875 5.085938 C 8.625 5.078125 8.578125 5.128906 8.589844 5.1875 C 8.597656 5.226562 8.652344 5.273438 8.691406 5.277344 Z M 8.691406 5.277344 "/>
<path style=" stroke:none;fill-rule:nonzero;fill:url(#linear7);" d="M 4.527344 1.824219 C 4.589844 1.839844 4.640625 1.796875 4.628906 1.730469 C 4.621094 1.691406 4.582031 1.652344 4.558594 1.617188 L 4.511719 1.617188 C 4.488281 1.652344 4.4375 1.691406 4.441406 1.726562 C 4.445312 1.761719 4.492188 1.816406 4.527344 1.824219 Z M 4.527344 1.824219 "/>
<path style=" stroke:none;fill-rule:nonzero;fill:url(#linear8);" d="M 2.660156 3.324219 L 2.664062 3.296875 C 2.695312 3.265625 2.726562 3.234375 2.75 3.199219 C 2.796875 3.136719 2.800781 3.058594 2.800781 2.984375 C 2.792969 2.871094 2.738281 2.789062 2.636719 2.742188 C 2.574219 2.707031 2.5 2.695312 2.425781 2.695312 C 2.328125 2.691406 2.226562 2.695312 2.121094 2.695312 L 2.101562 2.703125 C 2.101562 3.074219 2.101562 3.445312 2.101562 3.816406 L 2.125 3.824219 C 2.164062 3.824219 2.199219 3.824219 2.238281 3.824219 C 2.265625 3.824219 2.269531 3.820312 2.269531 3.789062 C 2.269531 3.648438 2.269531 3.511719 2.269531 3.371094 L 2.269531 3.351562 C 2.335938 3.351562 2.402344 3.351562 2.46875 3.351562 L 2.507812 3.375 C 2.558594 3.519531 2.609375 3.65625 2.660156 3.800781 L 2.679688 3.820312 C 2.726562 3.824219 2.773438 3.824219 2.824219 3.820312 L 2.835938 3.800781 L 2.832031 3.78125 C 2.773438 3.628906 2.71875 3.476562 2.660156 3.324219 Z M 2.515625 3.191406 C 2.476562 3.207031 2.433594 3.210938 2.394531 3.210938 C 2.351562 3.210938 2.3125 3.210938 2.269531 3.210938 C 2.269531 3.085938 2.269531 2.960938 2.269531 2.835938 L 2.273438 2.835938 C 2.347656 2.835938 2.421875 2.828125 2.496094 2.847656 C 2.582031 2.871094 2.625 2.925781 2.628906 3.019531 C 2.632812 3.09375 2.585938 3.160156 2.515625 3.191406 Z M 2.515625 3.191406 "/>
<path style=" stroke:none;fill-rule:nonzero;fill:url(#linear9);" d="M 3.984375 2.699219 C 3.933594 2.699219 3.886719 2.699219 3.835938 2.699219 C 3.800781 2.699219 3.796875 2.699219 3.78125 2.734375 C 3.691406 2.980469 3.605469 3.226562 3.515625 3.46875 L 3.511719 3.464844 C 3.441406 3.214844 3.34375 2.976562 3.261719 2.730469 C 3.253906 2.707031 3.246094 2.699219 3.21875 2.699219 C 3.164062 2.699219 3.113281 2.699219 3.066406 2.699219 C 3.027344 2.699219 3.015625 2.710938 3.015625 2.746094 C 3.015625 2.867188 3.015625 2.992188 3.015625 3.113281 C 3.015625 3.335938 3.015625 3.558594 3.015625 3.78125 C 3.015625 3.816406 3.027344 3.828125 3.058594 3.828125 C 3.089844 3.828125 3.117188 3.828125 3.148438 3.828125 C 3.179688 3.828125 3.191406 3.816406 3.191406 3.78125 C 3.191406 3.566406 3.191406 3.355469 3.191406 3.140625 L 3.191406 3.121094 L 3.199219 3.132812 C 3.273438 3.351562 3.34375 3.566406 3.421875 3.78125 C 3.429688 3.8125 3.4375 3.816406 3.46875 3.816406 C 3.496094 3.816406 3.519531 3.816406 3.546875 3.816406 C 3.578125 3.816406 3.585938 3.8125 3.59375 3.78125 C 3.675781 3.554688 3.761719 3.328125 3.839844 3.101562 L 3.847656 3.082031 C 3.851562 3.214844 3.851562 3.34375 3.851562 3.476562 C 3.851562 3.574219 3.851562 3.679688 3.851562 3.777344 C 3.851562 3.8125 3.863281 3.824219 3.898438 3.824219 C 3.925781 3.824219 3.953125 3.824219 3.984375 3.824219 C 4.015625 3.824219 4.03125 3.8125 4.03125 3.78125 C 4.03125 3.433594 4.027344 3.085938 4.027344 2.742188 C 4.027344 2.707031 4.015625 2.699219 3.984375 2.699219 Z M 3.984375 2.699219 "/>
<path style=" stroke:none;fill-rule:nonzero;fill:url(#linear10);" d="M 7.660156 6.554688 C 7.621094 6.523438 7.578125 6.507812 7.535156 6.5 C 7.5 6.496094 7.46875 6.496094 7.433594 6.503906 C 7.40625 6.507812 7.378906 6.515625 7.351562 6.53125 C 7.308594 6.5625 7.285156 6.605469 7.273438 6.65625 C 7.261719 6.710938 7.269531 6.765625 7.289062 6.816406 C 7.300781 6.863281 7.328125 6.898438 7.375 6.917969 C 7.398438 6.929688 7.425781 6.9375 7.453125 6.941406 L 7.535156 6.941406 L 7.53125 6.976562 C 7.523438 7.027344 7.503906 7.078125 7.472656 7.121094 C 7.433594 7.183594 7.382812 7.238281 7.324219 7.28125 C 7.285156 7.316406 7.242188 7.339844 7.195312 7.351562 C 7.15625 7.367188 7.113281 7.367188 7.074219 7.359375 L 7.015625 7.335938 C 6.976562 7.304688 6.953125 7.265625 6.953125 7.210938 C 6.953125 7.058594 6.953125 6.902344 6.953125 6.746094 L 6.953125 6.742188 C 7.039062 6.742188 7.125 6.742188 7.210938 6.742188 L 7.210938 6.738281 C 7.15625 6.683594 7.105469 6.628906 7.050781 6.574219 L 7.046875 6.574219 C 7.015625 6.574219 6.988281 6.574219 6.960938 6.574219 L 6.953125 6.574219 L 6.953125 6.566406 C 6.953125 6.457031 6.953125 6.347656 6.953125 6.238281 C 6.953125 6.203125 6.949219 6.167969 6.945312 6.132812 C 6.933594 6.074219 6.914062 6.019531 6.878906 5.96875 C 6.828125 5.90625 6.765625 5.878906 6.683594 5.890625 C 6.648438 5.894531 6.613281 5.90625 6.578125 5.925781 L 6.53125 5.960938 L 6.523438 6.023438 C 6.535156 6.046875 6.546875 6.070312 6.558594 6.09375 L 6.578125 6.136719 L 6.609375 6.128906 C 6.636719 6.121094 6.667969 6.121094 6.699219 6.132812 L 6.75 6.164062 C 6.769531 6.183594 6.777344 6.210938 6.777344 6.242188 C 6.777344 6.351562 6.777344 6.457031 6.777344 6.566406 L 6.777344 6.574219 C 6.667969 6.574219 6.558594 6.574219 6.449219 6.574219 L 6.453125 6.574219 C 6.503906 6.628906 6.554688 6.683594 6.609375 6.738281 L 6.613281 6.742188 C 6.667969 6.742188 6.71875 6.742188 6.769531 6.742188 L 6.777344 6.742188 L 6.777344 6.746094 C 6.777344 6.929688 6.777344 7.105469 6.777344 7.285156 L 6.777344 7.296875 C 6.789062 7.324219 6.800781 7.347656 6.816406 7.371094 C 6.863281 7.4375 6.925781 7.492188 7.003906 7.523438 C 7.046875 7.546875 7.085938 7.554688 7.128906 7.554688 C 7.175781 7.554688 7.226562 7.550781 7.273438 7.539062 C 7.355469 7.519531 7.429688 7.484375 7.496094 7.433594 C 7.578125 7.371094 7.648438 7.296875 7.703125 7.210938 C 7.761719 7.121094 7.796875 7.03125 7.800781 6.925781 C 7.808594 6.871094 7.800781 6.816406 7.789062 6.765625 C 7.769531 6.679688 7.726562 6.609375 7.660156 6.554688 Z M 7.660156 6.554688 "/>
</g>
</svg>
